<svg xmlns="http://www.w3.org/2000/svg" viewBox="0 0 145.34 133.23"><defs><style>.cls-1{fill:#e62c29;}.cls-2{fill:#fff;}.cls-3{fill:#b5b5b5;}.cls-4{fill:#d6edf4;}.cls-5{fill:#cdcccc;}</style></defs><g id="Layer_2" data-name="Layer 2"><g id="Layer_1-2" data-name="Layer 1"><path class="cls-1" d="M0,122.74S14.83,70.59,23.6,71.35s24.48,51.09,24.56,51.39-.37,5.14-8.69,5.45-35.37,0-35.37,0S-.29,126.67,0,122.74Z"/><path class="cls-1" d="M97.19,122.74S112,70.59,120.77,71.35s24.48,51.09,24.56,51.39-.37,5.14-8.68,5.45-35.38,0-35.38,0S96.89,126.67,97.19,122.74Z"/><path class="cls-2" d="M18.64,120.1S52-1.75,71.75,0s55.13,119.37,55.31,120.08-.84,12-19.56,12.71-79.66,0-79.66,0S18,129.28,18.64,120.1Z"/><path class="cls-1" d="M51.83,23.39C58.89,9.31,66-.48,71.85,0,77.52.5,84.46,9.93,91.5,23.23"/><circle class="cls-3" cx="71.82" cy="57.75" r="11.51"/><circle class="cls-4" cx="71.82" cy="57.75" r="9.44"/><path class="cls-3" d="M55.84,133s2.27-43.33,19.08-38.88,12.35,39.12,12.35,39.12Z"/><path class="cls-5" d="M57.74,133.12S59.9,91.81,74.67,96s10.71,37.25,10.71,37.25Z"/></g></g></svg>