<svg xmlns="http://www.w3.org/2000/svg" viewBox="0 0 176.34 85.91"><defs><style>.cls-1{fill:#b5b5b5;}.cls-2{fill:#cdcccc;}.cls-3{fill:#fff;}.cls-4{fill:#2aa837;}.cls-5{fill:#d80f16;}.cls-6{fill:#0d7834;}.cls-7{fill:#c3e0c7;}.cls-8{opacity:0.4;}.cls-9{fill:#d6edf4;}</style></defs><g id="Layer_2" data-name="Layer 2"><g id="Layer_1-2" data-name="Layer 1"><ellipse class="cls-1" cx="88.17" cy="63.52" rx="59.36" ry="22.39"/><ellipse class="cls-2" cx="88.17" cy="55.96" rx="88.17" ry="22.39"/><path class="cls-3" d="M139.27,49.36h-.09C88.39,83.55,37.79,51,33.61,48.22c2.71-25.82,25.31-46,52.78-46C114.26,2.26,137.1,23,139.27,49.36Z"/><path class="cls-4" d="M122.79,25.62c1.19-1,2.55-1.89,3.67-3,0,.25-.1.5-.17.74a24.83,24.83,0,0,1-2.48,5.17,14.64,14.64,0,0,0-1.8,5A18.55,18.55,0,0,1,120.84,39c-2.85,6.22-10,9-13.79,14.58a12.09,12.09,0,0,0-2.34,8.59,179.9,179.9,0,0,1-24.13.19c-4-.25-8-.55-12-1.19a26.36,26.36,0,0,1-9-2.87,1.18,1.18,0,0,0,.23-1.17c3.61-5.13.5-12.11-1.57-17.34-1.36-3.43-2.13-6.87-1.27-10.52a17.69,17.69,0,0,1,5.44-9c5.4-4.86,13.53-6.73,20.63-6a16.36,16.36,0,0,1,9.79,4.27,20,20,0,0,1,5,8.08A30.07,30.07,0,0,1,99.1,37.88c-.19,4.16-.51,8.32.76,12.36.35,1.14,2,.64,1.92-.44-.06-4.13,4.41-6.31,7.57-7.82,3.31-1.56,6.29-3.27,8.05-6.62S119.71,28.1,122.79,25.62Z"/><path class="cls-4" d="M80.58,62.38a179.9,179.9,0,0,0,24.13-.19,12.09,12.09,0,0,1,2.34-8.59C110.83,48.05,118,45.24,120.84,39A18.55,18.55,0,0,0,122,33.58a14.64,14.64,0,0,1,1.8-5,24.83,24.83,0,0,0,2.48-5.17c.07-.24.12-.49.17-.74-1.12,1.1-2.48,2-3.67,3-3.08,2.48-3.65,6.4-5.39,9.74s-4.74,5.06-8.05,6.62c-3.16,1.51-7.63,3.69-7.57,7.82,0,1.08-1.57,1.58-1.92.44-1.27-4-1-8.2-.76-12.36a30.07,30.07,0,0,0-1.28-11.24,20,20,0,0,0-5-8.08,16.36,16.36,0,0,0-9.79-4.27c-7.1-.74-15.23,1.13-20.63,6a17.69,17.69,0,0,0-5.44,9c-.86,3.65-.09,7.09,1.27,10.52C60.32,45,63.43,52,59.82,57.15a1.18,1.18,0,0,1-.23,1.17,26.36,26.36,0,0,0,9,2.87C72.53,61.83,76.57,62.13,80.58,62.38ZM86,64.61c-2.07-.07-4.14-.16-6.2-.29l-1.94-.13c-2.89-.6-5.77-1.28-8.64-1.92-3.39-.76-6.78-1.46-10.2-2a19.56,19.56,0,0,1-2.36-1.5c-.77-.56-.19-1.59.56-1.76l.23,0c2.87-3.07,2.29-7.73,1-11.4-1.41-4-3.56-7.77-3.79-12C53.74,17.46,73.68,9.11,87.08,13c6.66,1.94,11.13,7.64,13,14.15a32.57,32.57,0,0,1,1,10.36,59.49,59.49,0,0,0-.08,8.23,12.46,12.46,0,0,1,4.44-4.05c3.13-1.8,7-2.79,9.25-5.8S117.33,29,119.6,26c1.89-2.46,6.59-4.16,7.09-7.49a3.31,3.31,0,0,1,.25.3,11.6,11.6,0,0,0,.89,1.08,1.82,1.82,0,0,0,.81.52l.16.07a16.38,16.38,0,0,1-.74,3.9c-.71,2.23-2,4.1-3,6.18-1.14,2.34-1,4.81-1.62,7.26a14.26,14.26,0,0,1-2.59,5c-2.59,3.34-6.2,5.58-9.19,8.49s-6,7-4.75,11.42a1.29,1.29,0,0,1,0,.48,22.38,22.38,0,0,0-3.39.41,33.15,33.15,0,0,1-6.28.75C93.46,64.41,89.71,64.54,86,64.61Z"/><path class="cls-5" d="M98.26,47.92c-.11,2.27-1.91,3.84-3.77,4.86a22.31,22.31,0,0,1-6,2.2,23,23,0,0,1-12.33-.78C74,54.11,72.94,51.81,73,49.82c.09-2.17.91-4.36,3.23-4.88,2-.44,4,.21,5.92-.2,2.3-.48,4.3-1.82,6.53-2.49s4.44-.76,6.32.55a10.33,10.33,0,0,1,2.26,2.31A4.27,4.27,0,0,1,98.26,47.92ZM93.21,52C94.85,51.2,96.84,50,97,48a3.82,3.82,0,0,0-1.26-2.71,6.44,6.44,0,0,0-2.11-1.78c-1.79-.82-3.9-.28-5.65.4a43.31,43.31,0,0,1-5.27,2.07,18.89,18.89,0,0,1-4.75.15,4.24,4.24,0,0,0-2.22.4,3,3,0,0,0-1.3,2.2c-.26,1.3-.16,3.64,1.27,4.15a.58.58,0,0,1,.39,0l.26.09a1.46,1.46,0,0,1,.21,0,.54.54,0,0,1,.56.26,21.67,21.67,0,0,0,11.13.55A20.91,20.91,0,0,0,93.21,52Z"/><path class="cls-5" d="M97,48c-.14,2-2.13,3.25-3.77,4.06a20.91,20.91,0,0,1-5,1.72,21.67,21.67,0,0,1-11.13-.55.54.54,0,0,0-.56-.26,1.46,1.46,0,0,0-.21,0l-.26-.09a.58.58,0,0,0-.39,0c-1.43-.51-1.53-2.85-1.27-4.15a3,3,0,0,1,1.3-2.2,4.24,4.24,0,0,1,2.22-.4,18.89,18.89,0,0,0,4.75-.15A43.31,43.31,0,0,0,88,43.86c1.75-.68,3.86-1.22,5.65-.4a6.44,6.44,0,0,1,2.11,1.78A3.82,3.82,0,0,1,97,48Z"/><path class="cls-3" d="M93.49,52.07a.64.64,0,0,1,0,1l-3,1.6a.65.65,0,0,1-.89-.16.47.47,0,0,1-.1-.33.66.66,0,0,1-.15-.22,5.73,5.73,0,0,1,.09-3.79.63.63,0,0,1,.45-.34.62.62,0,0,1,.55.14ZM90.4,53.25c.48-.24,1-.49,1.43-.76l-1.51-1c0,.1,0,.2,0,.3a.75.75,0,0,1,0,.21h0a.16.16,0,0,1,0,.07,6.48,6.48,0,0,0,.06.77l0,.19a.43.43,0,0,1,0,.12S90.38,53.22,90.4,53.25Z"/><path class="cls-3" d="M91.83,52.49c-.47.27-1,.52-1.43.76,0,0,0-.06,0-.09a.43.43,0,0,0,0-.12l0-.19a6.48,6.48,0,0,1-.06-.77.16.16,0,0,0,0-.07h0a.75.75,0,0,0,0-.21c0-.1,0-.2,0-.3Z"/><path class="cls-3" d="M90.33,46.45a.66.66,0,0,1-.27.58.66.66,0,0,1-.65.06,15.74,15.74,0,0,1-3.32-2.88.62.62,0,0,1-.28-.33.63.63,0,0,1,.38-.81,13.83,13.83,0,0,0,3.35-1.35.65.65,0,0,1,1,.64C90.4,43.74,90.33,45.07,90.33,46.45ZM89.08,45.3c0-.66,0-1.31.1-2a14.34,14.34,0,0,1-1.57.64A16.8,16.8,0,0,0,89.08,45.3Z"/><path class="cls-3" d="M89.18,43.33c-.05.66-.07,1.31-.1,2A16.8,16.8,0,0,1,87.61,44,14.34,14.34,0,0,0,89.18,43.33Z"/><path class="cls-3" d="M84.75,54.71a.64.64,0,0,1-.72.71l-1.87-.22a.54.54,0,0,1-.35.06c-.24-.06-.47-.13-.72-.18a.67.67,0,0,1-.52-.48.58.58,0,0,1-.21-.1.67.67,0,0,1-.11-.9c.69-1,1.35-2,2-3.05a.63.63,0,0,1,1,0A12.26,12.26,0,0,1,84.75,54.71Zm-3.13-.86,1.7.19a.87.87,0,0,0,0-.1c-.08-.3-.17-.6-.28-.9a8.26,8.26,0,0,0-.33-.82Z"/><path class="cls-3" d="M83.32,54l-1.7-.19,1.07-1.63A8.26,8.26,0,0,1,83,53c.11.3.2.6.28.9A.87.87,0,0,1,83.32,54Z"/><path class="cls-3" d="M82,45.1a.72.72,0,0,1,0,.64,18.11,18.11,0,0,1-2.1,4,.65.65,0,0,1-1.09-.23c-.34-.94-.67-1.89-1-2.83a.67.67,0,0,1-.47-.58.59.59,0,0,1,.23-.51.61.61,0,0,1,.39-.42.62.62,0,0,1,.63.14l2.79-.46A.67.67,0,0,1,82,45.1ZM80.4,46.27l-1.28.21c.15.45.32.89.47,1.34A15.21,15.21,0,0,0,80.4,46.27Z"/><path class="cls-3" d="M79.12,46.48l1.28-.21a15.21,15.21,0,0,1-.81,1.55C79.44,47.37,79.27,46.93,79.12,46.48Z"/><path class="cls-3" d="M89.83,31.52a7.28,7.28,0,0,1-.21,5.06,7,7,0,0,1-3.19,3.19,7.29,7.29,0,0,1-8.66-1.37,7.84,7.84,0,0,1-1.6-8.71,9.07,9.07,0,0,1,7.65-5,.94.94,0,0,1,1,.57C87.28,26.18,89.17,29.2,89.83,31.52ZM88,35.38a5.85,5.85,0,0,0-.25-4c-.8-2.08-2.89-5.44-5.62-4.14a.85.85,0,0,1-.71,0A6.65,6.65,0,0,0,77.79,31a5.92,5.92,0,0,0,1.61,6.27,5.26,5.26,0,0,0,6.4.62A4.86,4.86,0,0,0,88,35.38Z"/><path class="cls-3" d="M87.7,31.41a5.85,5.85,0,0,1,.25,4,4.86,4.86,0,0,1-2.15,2.5,5.26,5.26,0,0,1-6.4-.62A5.92,5.92,0,0,1,77.79,31a6.65,6.65,0,0,1,3.58-3.69.85.85,0,0,0,.71,0C84.81,26,86.9,29.33,87.7,31.41Z"/><path class="cls-6" d="M84.92,13.08a1,1,0,0,1-1.41.72c-2.52-1.41-5.16-.43-7.74.19a1.69,1.69,0,0,1-2.21-1.6,6.63,6.63,0,0,1,.13-1.25,2.65,2.65,0,0,1,0-.39,1,1,0,0,1,.22-1.68c.11-.39.24-.76.35-1.07a11.07,11.07,0,0,1,3.14-4.52,11,11,0,0,1,2.4-1.58c.85-.42,2-.93,2.88-.33s1.11,1.84,1.41,2.71a19.47,19.47,0,0,1,.69,2.83A19.59,19.59,0,0,1,84.92,13.08ZM76.3,11.76a12,12,0,0,1,6.77-.31,18.3,18.3,0,0,0-.21-4A16.61,16.61,0,0,0,82.25,5c-.13-.42-.28-.85-.44-1.25l-.21-.46-.24.08a8.77,8.77,0,0,0-3.78,2.78,9.32,9.32,0,0,0-1.21,2,9.41,9.41,0,0,0-.37,1,4.7,4.7,0,0,0-.12.51,1,1,0,0,1,.28.44,1.17,1.17,0,0,1-.51,1.35v0a4,4,0,0,0-.07.46C75.82,11.88,76.07,11.83,76.3,11.76Z"/><path class="cls-6" d="M83.07,11.45a12,12,0,0,0-6.77.31c-.23.07-.48.12-.71.2a4,4,0,0,1,.07-.46v0a1.17,1.17,0,0,0,.51-1.35,1,1,0,0,0-.28-.44A4.7,4.7,0,0,1,76,9.17a9.41,9.41,0,0,1,.37-1,9.32,9.32,0,0,1,1.21-2,8.77,8.77,0,0,1,3.78-2.78l.24-.08.21.46c.16.4.31.83.44,1.25a16.61,16.61,0,0,1,.61,2.43A18.3,18.3,0,0,1,83.07,11.45Z"/><path class="cls-6" d="M72.57,14.75a.81.81,0,0,1-.93.86c-2.24-.54-4.06.78-5.91,1.81a1.36,1.36,0,0,1-2.06-.74,5.78,5.78,0,0,1-.16-1,2.51,2.51,0,0,1-.06-.3.85.85,0,0,1-.2-1.35,7.75,7.75,0,0,1,0-.88A8.64,8.64,0,0,1,64.73,9a8.52,8.52,0,0,1,1.5-1.73c.58-.51,1.33-1.15,2.14-.88S69.64,7.54,70,8.15a16.9,16.9,0,0,1,1.15,2A16,16,0,0,1,72.57,14.75Zm-1.78-.86a15.47,15.47,0,0,0-1-3,16.73,16.73,0,0,0-1-1.75c-.19-.29-.41-.58-.62-.86-.08-.1-.17-.2-.25-.31l-.17.12a7,7,0,0,0-2.31,3,7.12,7.12,0,0,0-.5,1.78,5.85,5.85,0,0,0-.07.85,3,3,0,0,0,0,.42.61.61,0,0,1,.3.28.92.92,0,0,1-.09,1.14v0c0,.12,0,.25,0,.38a5.58,5.58,0,0,1,.52-.32A9.55,9.55,0,0,1,70.79,13.89Z"/><path class="cls-6" d="M69.77,10.88a15.47,15.47,0,0,1,1,3,9.55,9.55,0,0,0-5.13,1.7,5.58,5.58,0,0,0-.52.32c0-.13,0-.26,0-.38v0a.92.92,0,0,0,.09-1.14.61.61,0,0,0-.3-.28,3,3,0,0,1,0-.42,5.85,5.85,0,0,1,.07-.85,7.12,7.12,0,0,1,.5-1.78,7,7,0,0,1,2.31-3L67.91,8c.08.11.17.21.25.31.21.28.43.57.62.86A16.73,16.73,0,0,1,69.77,10.88Z"/><path class="cls-6" d="M60.29,19.85a.64.64,0,0,1,.06,1c-1.45,1.1-1.55,2.88-1.83,4.53a1.07,1.07,0,0,1-1.49.88,3.85,3.85,0,0,1-.69-.39c-.1-.05-.2-.08-.22-.12a.66.66,0,0,1-.93-.55c-.19-.16-.37-.33-.52-.47a7,7,0,0,1-1.83-2.95,6.54,6.54,0,0,1-.31-1.8c0-.6,0-1.39.54-1.75A3.2,3.2,0,0,1,55,18.11a11,11,0,0,1,1.81.31A12.53,12.53,0,0,1,60.29,19.85Zm-3.25,5a3,3,0,0,0,.26.16,4,4,0,0,1,.05-.47,7.51,7.51,0,0,1,1.53-4,10,10,0,0,0-2.36-.88A10.3,10.3,0,0,0,55,19.38c-.27,0-.56-.05-.83-.06h-.31a.78.78,0,0,0,0,.16,5.51,5.51,0,0,0,.66,2.89,5.82,5.82,0,0,0,.84,1.19,5.55,5.55,0,0,0,.49.48l.26.19a.66.66,0,0,1,.32,0,.75.75,0,0,1,.66.64Z"/><path class="cls-6" d="M55.87,33.35a.87.87,0,0,1-.77,1.19,3.65,3.65,0,0,1-.66,0h-.2a.54.54,0,0,1-.88-.07c-.21,0-.4-.11-.56-.15a5.74,5.74,0,0,1-2.44-1.51,6.07,6.07,0,0,1-.88-1.2c-.24-.44-.53-1-.25-1.49s.93-.63,1.37-.8a11,11,0,0,1,1.45-.44,10.1,10.1,0,0,1,3.1-.21.52.52,0,0,1,.42.71C54.9,30.68,55.47,32,55.87,33.35Zm-1,.16c0-.13-.08-.25-.12-.37a6.23,6.23,0,0,1-.34-3.51,8.9,8.9,0,0,0-2.06.22,8.72,8.72,0,0,0-1.26.37l-.64.27a1.23,1.23,0,0,1-.23.11l.06.14a4.71,4.71,0,0,0,1.54,1.89,5.11,5.11,0,0,0,1.06.56,4.68,4.68,0,0,0,.53.17l.26,0a.5.5,0,0,1,.22-.16.62.62,0,0,1,.72.23h0A1.71,1.71,0,0,1,54.82,33.51Z"/><path class="cls-6" d="M57.3,25a3,3,0,0,1-.26-.16h0a.75.75,0,0,0-.66-.64.66.66,0,0,0-.32,0l-.26-.19a5.55,5.55,0,0,1-.49-.48,5.82,5.82,0,0,1-.84-1.19,5.51,5.51,0,0,1-.66-2.89.78.78,0,0,1,0-.16h.31c.27,0,.56,0,.83.06a10.3,10.3,0,0,1,1.57.27,10,10,0,0,1,2.36.88,7.51,7.51,0,0,0-1.53,4A4,4,0,0,0,57.3,25Z"/><path class="cls-6" d="M54.7,33.14c0,.12.07.24.12.37a1.71,1.71,0,0,0-.25,0h0a.62.62,0,0,0-.72-.23.5.5,0,0,0-.22.16l-.26,0a4.68,4.68,0,0,1-.53-.17,5.11,5.11,0,0,1-1.06-.56,4.71,4.71,0,0,1-1.54-1.89l-.06-.14a1.23,1.23,0,0,0,.23-.11l.64-.27a8.72,8.72,0,0,1,1.26-.37,8.9,8.9,0,0,1,2.06-.22A6.23,6.23,0,0,0,54.7,33.14Z"/><path class="cls-7" d="M85.31,31.1c1.87,1.06,3.32,3.09,2.57,5.29a4.47,4.47,0,0,1-4.51,2.86,4.62,4.62,0,0,1-3.82-3.53,5.84,5.84,0,0,1-.14-1.84.89.89,0,0,1-.16-.74,3.5,3.5,0,0,1,1.37-2,2.67,2.67,0,0,1,1-.59,1,1,0,0,1,.45,0A4.81,4.81,0,0,1,85.31,31.1Zm.74,4.52,0-.13a.72.72,0,0,0,0-.19,1,1,0,0,1,0-.17,1.1,1.1,0,0,0,0-.18v-.08s0,0,0-.07a2,2,0,0,0-.39-.8,3.94,3.94,0,0,0-1.6-1.28,2.68,2.68,0,0,0-1.14-.3,2.05,2.05,0,0,0-.74.12l-.23.11-.06,0a1.1,1.1,0,0,1-.12.14l0,0a3.24,3.24,0,0,0-.26.53s0,0,0,.05v.06c0,.09,0,.19-.06.27s0,.19,0,.28v.16a4.26,4.26,0,0,0,0,.51l.05.28v0s0,0,0,0,.1.32.16.49a2,2,0,0,0,.15.33l0,0a3.19,3.19,0,0,0,.26.38,1.53,1.53,0,0,0,.16.22l0,0c.11.1.22.2.34.29l.13.1,0,0,.16.09.26.11s0,0,0,0a3.1,3.1,0,0,0,.42.08.06.06,0,0,0,0,0h.24l.31,0h.06l.45-.16a.85.85,0,0,1,.13-.06l.14-.08c.13-.08.25-.18.38-.27l.05,0a.46.46,0,0,1,.07-.07l.15-.16a1.41,1.41,0,0,1,.14-.18s0-.06.06-.08.13-.24.19-.38Z"/><path class="cls-7" d="M86.07,35.49l0,.13,0,.12c-.06.14-.13.26-.19.38s0,.06-.06.08a1.41,1.41,0,0,0-.14.18l-.15.16a.46.46,0,0,0-.07.07l-.05,0c-.13.09-.25.19-.38.27l-.14.08a.85.85,0,0,0-.13.06l-.45.16h-.06l-.31,0h-.24a.06.06,0,0,1,0,0,3.1,3.1,0,0,1-.42-.08s0,0,0,0l-.26-.11L82.71,37l0,0-.13-.1c-.12-.09-.23-.19-.34-.29l0,0a1.53,1.53,0,0,1-.16-.22,3.19,3.19,0,0,1-.26-.38l0,0a2,2,0,0,1-.15-.33c-.06-.17-.11-.33-.16-.49s0,0,0,0v0l-.05-.28a4.26,4.26,0,0,1,0-.51v-.16c0-.09,0-.19,0-.28s0-.18.06-.27v-.06s0,0,0-.05a3.24,3.24,0,0,1,.26-.53l0,0a1.1,1.1,0,0,0,.12-.14l.06,0,.23-.11a2.05,2.05,0,0,1,.74-.12,2.68,2.68,0,0,1,1.14.3A3.94,3.94,0,0,1,85.67,34a2,2,0,0,1,.39.8c0,.05,0,.06,0,.07V35a1.1,1.1,0,0,1,0,.18,1,1,0,0,0,0,.17A.72.72,0,0,1,86.07,35.49Z"/><path d="M85.88,35a2,2,0,0,0-.34-1,1.54,1.54,0,0,0-.34-.38,1.79,1.79,0,0,0-.68-.33,1.37,1.37,0,0,0-.75,0,1.27,1.27,0,0,0-.31.15,1.56,1.56,0,0,0-.28.23,1.21,1.21,0,0,0-.15.22.78.78,0,0,0-.21.09l-.19.17a1.06,1.06,0,0,0-.22.48,1.3,1.3,0,0,0,0,.52,2.09,2.09,0,0,0,.08.36,2.26,2.26,0,0,0,.17.35,1.75,1.75,0,0,0,.33.39l.1.09.33.21.12,0a2.4,2.4,0,0,0,.38.12,1.51,1.51,0,0,0,.52,0,2,2,0,0,0,.7-.25,1.59,1.59,0,0,0,.39-.34,1.88,1.88,0,0,0,.32-.69.79.79,0,0,0,0-.13A2.68,2.68,0,0,0,85.88,35Z"/><g class="cls-8"><path class="cls-9" d="M139.38,48.78h-.09C88.5,84.17,37.9,50.5,33.72,47.6a53.06,53.06,0,0,1,105.66,1.18Z"/></g></g></g></svg>